<svg width="900" height="560" viewBox="0 0 900 560" fill="none" xmlns="http://www.w3.org/2000/svg">
  <rect width="900" height="560" rx="28" fill="#F7F7F4"/>
  <rect x="94" y="390" width="712" height="78" rx="18" fill="#DCE8F8"/>
  <path d="M122 469H778" stroke="#17263D" stroke-width="6" stroke-linecap="round"/>
  <rect x="142" y="150" width="236" height="220" rx="18" fill="#FFFFFF" stroke="#17263D" stroke-width="6"/>
  <path d="M142 216H378" stroke="#17263D" stroke-width="6"/>
  <rect x="179" y="250" width="64" height="88" rx="8" fill="#6AA6D8"/>
  <rect x="270" y="250" width="64" height="88" rx="8" fill="#D6EBE4"/>
  <path d="M179 179H335" stroke="#E56B55" stroke-width="7" stroke-linecap="round"/>
  <rect x="455" y="116" width="282" height="178" rx="20" fill="#FFFFFF" stroke="#17263D" stroke-width="6"/>
  <path d="M497 174H693M497 215H649M497 256H611" stroke="#17263D" stroke-width="6" stroke-linecap="round"/>
  <circle cx="693" cy="256" r="22" fill="#F8D778" stroke="#17263D" stroke-width="6"/>
  <path d="M498 349C536 310 602 310 638 349" stroke="#17263D" stroke-width="6" stroke-linecap="round"/>
  <circle cx="568" cy="313" r="30" fill="#6AA6D8" stroke="#17263D" stroke-width="6"/>
  <circle cx="493" cy="382" r="34" fill="#D6EBE4" stroke="#17263D" stroke-width="6"/>
  <circle cx="641" cy="382" r="34" fill="#E56B55" stroke="#17263D" stroke-width="6"/>
  <path d="M263 420C343 389 435 393 493 382M641 382C698 366 739 342 771 300" stroke="#17263D" stroke-width="5" stroke-linecap="round" stroke-dasharray="12 16"/>
</svg>
