<svg width="900" height="560" viewBox="0 0 900 560" fill="none" xmlns="http://www.w3.org/2000/svg">
  <defs>
    <linearGradient id="bg" x1="0" y1="0" x2="900" y2="560" gradientUnits="userSpaceOnUse">
      <stop stop-color="#EEF2FF"/>
      <stop offset="1" stop-color="#ECFDF5"/>
    </linearGradient>
    <linearGradient id="route" x1="196" y1="331" x2="698" y2="217" gradientUnits="userSpaceOnUse">
      <stop stop-color="#4F46E5"/>
      <stop offset="1" stop-color="#059669"/>
    </linearGradient>
  </defs>
  <rect width="900" height="560" rx="32" fill="url(#bg)"/>
  <g opacity="0.34" stroke="#334155" stroke-width="1">
    <path d="M96 102H804M96 178H804M96 254H804M96 330H804M96 406H804M96 482H804"/>
    <path d="M150 62V498M250 62V498M350 62V498M450 62V498M550 62V498M650 62V498M750 62V498"/>
  </g>
  <path d="M174 352C246 301 295 288 361 317C431 348 474 358 543 306C609 256 642 217 726 215" stroke="url(#route)" stroke-width="8" stroke-linecap="round"/>
  <path d="M174 352C246 301 295 288 361 317C431 348 474 358 543 306C609 256 642 217 726 215" stroke="#FFFFFF" stroke-opacity="0.72" stroke-width="2" stroke-linecap="round" stroke-dasharray="10 18"/>
  <g>
    <circle cx="174" cy="352" r="26" fill="#FFFFFF" stroke="#4F46E5" stroke-width="6"/>
    <circle cx="361" cy="317" r="22" fill="#FFFFFF" stroke="#4F46E5" stroke-width="5"/>
    <circle cx="543" cy="306" r="22" fill="#FFFFFF" stroke="#059669" stroke-width="5"/>
    <circle cx="726" cy="215" r="28" fill="#FFFFFF" stroke="#059669" stroke-width="6"/>
  </g>
  <g fill="#172554">
    <rect x="120" y="394" width="146" height="58" rx="14" fill="#FFFFFF" fill-opacity="0.82"/>
    <rect x="327" y="205" width="156" height="62" rx="14" fill="#FFFFFF" fill-opacity="0.82"/>
    <rect x="595" y="326" width="164" height="62" rx="14" fill="#FFFFFF" fill-opacity="0.82"/>
  </g>
  <g stroke="#4F46E5" stroke-width="5" stroke-linecap="round">
    <path d="M151 421H232"/>
    <path d="M358 232H448"/>
    <path d="M626 353H728"/>
  </g>
  <g stroke="#059669" stroke-width="3" stroke-linecap="round" opacity="0.75">
    <path d="M151 436H207"/>
    <path d="M358 248H421"/>
    <path d="M626 369H693"/>
  </g>
  <g opacity="0.35" fill="#4F46E5">
    <circle cx="702" cy="110" r="6"/>
    <circle cx="740" cy="142" r="4"/>
    <circle cx="188" cy="168" r="5"/>
    <circle cx="236" cy="132" r="4"/>
    <circle cx="460" cy="438" r="5"/>
  </g>
  <path d="M775 166L815 190L775 214V166Z" fill="#059669" fill-opacity="0.72"/>
</svg>
