<svg width="900" height="560" viewBox="0 0 900 560" fill="none" xmlns="http://www.w3.org/2000/svg">
  <rect width="900" height="560" rx="32" fill="#F8FAFC"/>
  <rect x="112" y="96" width="676" height="368" rx="28" fill="#FFFFFF" stroke="#172554" stroke-width="7"/>
  <path d="M112 188H788M338 96V464M562 96V464" stroke="#CBD5E1" stroke-width="4"/>
  <rect x="152" y="132" width="142" height="32" rx="16" fill="#EEF2FF"/>
  <rect x="378" y="132" width="142" height="32" rx="16" fill="#ECFDF5"/>
  <rect x="604" y="132" width="142" height="32" rx="16" fill="#FEF3C7"/>
  <g stroke-width="6" stroke-linecap="round">
    <path d="M170 252H280M170 286H242" stroke="#4F46E5"/>
    <path d="M396 252H506M396 286H474" stroke="#059669"/>
    <path d="M622 252H732M622 286H696" stroke="#D97706"/>
    <path d="M170 354H280M170 388H226" stroke="#4F46E5" stroke-opacity="0.72"/>
    <path d="M396 354H506M396 388H454" stroke="#059669" stroke-opacity="0.72"/>
    <path d="M622 354H732M622 388H678" stroke="#D97706" stroke-opacity="0.72"/>
  </g>
  <circle cx="292" cy="254" r="12" fill="#4F46E5"/>
  <circle cx="514" cy="354" r="12" fill="#059669"/>
  <circle cx="738" cy="286" r="12" fill="#D97706"/>
  <path d="M252 432C325 362 400 396 460 330C518 266 592 300 684 224" stroke="#172554" stroke-width="7" stroke-linecap="round"/>
  <path d="M684 224L676 257L717 237L684 224Z" fill="#172554"/>
</svg>
